<svg xmlns="http://www.w3.org/2000/svg" version="1.1" xmlns:xlink="http://www.w3.org/1999/xlink" xmlns:svgjs="http://svgjs.dev/svgjs" width="1000" height="411" viewBox="0 0 1000 411"><g transform="matrix(1,0,0,1,-0.6060426485200878,-0.5046584352557204)"><svg viewBox="0 0 396 163" data-background-color="#ffffff" preserveAspectRatio="xMidYMid meet" height="411" width="1000" xmlns="http://www.w3.org/2000/svg" xmlns:xlink="http://www.w3.org/1999/xlink"><g id="tight-bounds" transform="matrix(1,0,0,1,0.23999288881395842,0.20014434293597105)"><svg viewBox="0 0 395.52 162.59971131412806" height="162.59971131412806" width="395.52"><g><svg viewBox="0 0 395.52 162.59971131412806" height="162.59971131412806" width="395.52"><g transform="matrix(1,0,0,1,0,119.58469042989763)"><svg viewBox="0 0 395.52 43.01502088423044" height="43.01502088423044" width="395.52"><g id="textblocktransform"><svg viewBox="0 0 395.52 43.01502088423044" height="43.01502088423044" width="395.52" id="textblock"><g><svg viewBox="0 0 395.52 43.01502088423044" height="43.01502088423044" width="395.52"><g transform="matrix(1,0,0,1,0,0)"><svg width="395.52" viewBox="4.659999847412109 -33.08000183105469 309.7699890136719 33.69000244140625" height="43.01502088423044" data-palette-color="#31c48d"><path d="M12.11 0.61L12.11 0.61Q8.15 0.61 4.66-0.02L4.66-0.02 4.66-32.69Q7.89-33.08 12.15-33.08 16.41-33.08 19.86-31.92 23.32-30.76 25.63-28.61L25.63-28.61Q30.32-24.32 30.32-16.58L30.32-16.58Q30.32-7.91 25.1-3.42L25.1-3.42Q20.41 0.61 12.11 0.61ZM11.01-27.1L11.01-5.35Q12.6-5.05 14.18-5.05 15.77-5.05 17.6-5.68 19.43-6.3 20.78-7.62L20.78-7.62Q23.66-10.4 23.66-15.72L23.66-15.72Q23.66-24.46 17.29-26.46L17.29-26.46Q15.19-27.12 12.43-27.12L12.43-27.12 11.77-27.12Q11.4-27.12 11.01-27.1L11.01-27.1ZM53.66 0.2L48-12.62Q47.26-12.57 46.43-12.57 45.6-12.57 43.97-12.7L43.97-12.7 43.97 0 37.5 0 37.5-32.64Q40.92-33.08 45.9-33.08L45.9-33.08Q52.68-33.08 56.02-30.58 59.35-28.08 59.35-22.85L59.35-22.85Q59.35-18.8 56.3-15.92L56.3-15.92Q55.3-14.99 54-14.31L54-14.31 58.98-3.81Q60.45-0.56 61.23 0.05L61.23 0.05 61.11 0.17Q58.74-0.22 53.66 0.2L53.66 0.2ZM46.36-27.32L46.36-27.32Q45.11-27.32 43.97-27.2L43.97-27.2 43.97-17.87Q45.16-17.7 46.77-17.7 48.39-17.7 49.48-17.98 50.58-18.26 51.39-18.85L51.39-18.85Q53.12-20.14 53.12-22.73 53.12-25.32 51.32-26.37L51.32-26.37Q49.63-27.32 46.36-27.32ZM72.99-5.86L82.95-5.86Q84.47-5.86 85.05-6.15L85.05-6.15 85.15-6.13 84.91 0 66.62 0 66.62-32.64Q67.28-32.59 68.09-32.57L68.09-32.57 69.79-32.52Q71.5-32.47 73.51-32.47L73.51-32.47Q79.1-32.47 84.57-32.67L84.57-32.67Q84.3-30.52 84.3-26.93L84.3-26.93Q84.3-26.54 84.35-26.34L84.35-26.34 84.3-26.27Q83.03-26.64 80.68-26.64L80.68-26.64 72.99-26.64 72.99-20.41 78.78-20.41Q81.46-20.41 82-20.56L82-20.56 82.08-14.53Q80.9-14.65 79.05-14.65L79.05-14.65 72.99-14.65 72.99-5.86ZM96.33-7.03L94.04 0.2Q91.94 0 89.13 0L89.13 0 87.2 0 97.82-29.76Q98.53-31.76 98.53-32.09 98.53-32.42 98.5-32.5L98.5-32.5 98.53-32.54Q100.11-32.47 101.9-32.47L101.9-32.47Q103.36-32.47 105.41-32.52L105.41-32.52 105.44-32.47Q105.39-32.37 105.39-32.2L105.39-32.2Q105.39-31.74 106.12-29.74L106.12-29.74 116.96 0.07Q116.47 0.05 115.81 0.05L115.81 0.05Q115.81 0.05 114.54 0L114.54 0Q113.93 0 113.44 0L113.44 0 109.66 0 107.37-7.03 96.33-7.03ZM98.19-12.89L105.46-12.89 101.77-24.24 98.19-12.89ZM128.8 0.61L128.8 0.61Q124.84 0.61 121.35-0.02L121.35-0.02 121.35-32.69Q124.57-33.08 128.84-33.08 133.1-33.08 136.55-31.92 140-30.76 142.32-28.61L142.32-28.61Q147.01-24.32 147.01-16.58L147.01-16.58Q147.01-7.91 141.79-3.42L141.79-3.42Q137.1 0.61 128.8 0.61ZM127.7-27.1L127.7-5.35Q129.29-5.05 130.87-5.05 132.46-5.05 134.29-5.68 136.12-6.3 137.47-7.62L137.47-7.62Q140.35-10.4 140.35-15.72L140.35-15.72Q140.35-24.46 133.97-26.46L133.97-26.46Q131.87-27.12 129.12-27.12L129.12-27.12 128.46-27.12Q128.09-27.12 127.7-27.1L127.7-27.1ZM170.3 0L170.3-32.64Q173.69-33.08 177.26-33.08L177.26-33.08Q183.9-33.08 187.35-29.97 190.81-26.86 190.81-20.65L190.81-20.65Q190.81-15.11 187.02-11.89L187.02-11.89Q183.48-8.86 177.91-8.86L177.91-8.86Q177.28-8.86 176.52-8.94L176.52-8.94 176.52 0 170.3 0ZM177.99-27.2L177.99-27.2Q177.26-27.2 176.52-27.15L176.52-27.15 176.52-14.31Q177.3-14.21 178.43-14.21 179.55-14.21 180.77-14.69 181.99-15.16 182.82-16.02L182.82-16.02Q184.56-17.8 184.56-20.7L184.56-20.7Q184.56-27.2 177.99-27.2ZM196.56 0L196.56-32.57Q199.01-32.47 199.52-32.47L199.52-32.47 201.28-32.47Q202.57-32.47 203.35-32.67L203.35-32.67 203.33 0 196.56 0ZM228.67 0.2L223-12.62Q222.27-12.57 221.44-12.57 220.61-12.57 218.97-12.7L218.97-12.7 218.97 0 212.5 0 212.5-32.64Q215.92-33.08 220.9-33.08L220.9-33.08Q227.69-33.08 231.02-30.58 234.36-28.08 234.36-22.85L234.36-22.85Q234.36-18.8 231.3-15.92L231.3-15.92Q230.3-14.99 229.01-14.31L229.01-14.31 233.99-3.81Q235.45-0.56 236.23 0.05L236.23 0.05 236.11 0.17Q233.74-0.22 228.67 0.2L228.67 0.2ZM221.37-27.32L221.37-27.32Q220.12-27.32 218.97-27.2L218.97-27.2 218.97-17.87Q220.17-17.7 221.78-17.7 223.39-17.7 224.49-17.98 225.59-18.26 226.4-18.85L226.4-18.85Q228.13-20.14 228.13-22.73 228.13-25.32 226.32-26.37L226.32-26.37Q224.64-27.32 221.37-27.32ZM246.29-7.03L244 0.2Q241.9 0 239.09 0L239.09 0 237.16 0 247.78-29.76Q248.49-31.76 248.49-32.09 248.49-32.42 248.46-32.5L248.46-32.5 248.49-32.54Q250.08-32.47 251.86-32.47L251.86-32.47Q253.32-32.47 255.37-32.52L255.37-32.52 255.4-32.47Q255.35-32.37 255.35-32.2L255.35-32.2Q255.35-31.74 256.08-29.74L256.08-29.74 266.92 0.07Q266.43 0.05 265.77 0.05L265.77 0.05Q265.77 0.05 264.5 0L264.5 0Q263.89 0 263.41 0L263.41 0 259.62 0 257.33-7.03 246.29-7.03ZM248.15-12.89L255.42-12.89 251.74-24.24 248.15-12.89ZM282.57-27L282.57 0.15Q281.4 0 276.54 0L276.54 0 275.76 0 275.76-27 270.92-27Q268.77-27 268.38-26.78 267.99-26.56 267.77-26.39L267.77-26.39 267.7-26.42 267.7-32.67 267.77-32.74Q268.58-32.47 272.12-32.47L272.12-32.47 287.43-32.47Q289.57-32.47 289.97-32.69 290.36-32.91 290.58-33.08L290.58-33.08 290.65-33.06 290.65-26.81 290.58-26.73Q289.77-27 286.23-27L286.23-27 282.57-27ZM302.27-5.86L312.23-5.86Q313.74-5.86 314.33-6.15L314.33-6.15 314.43-6.13 314.18 0 295.9 0 295.9-32.64Q296.55-32.59 297.36-32.57L297.36-32.57 299.07-32.52Q300.78-32.47 302.78-32.47L302.78-32.47Q308.37-32.47 313.84-32.67L313.84-32.67Q313.57-30.52 313.57-26.93L313.57-26.93Q313.57-26.54 313.62-26.34L313.62-26.34 313.57-26.27Q312.3-26.64 309.96-26.64L309.96-26.64 302.27-26.64 302.27-20.41 308.05-20.41Q310.74-20.41 311.28-20.56L311.28-20.56 311.35-14.53Q310.18-14.65 308.32-14.65L308.32-14.65 302.27-14.65 302.27-5.86Z" opacity="1" transform="matrix(1,0,0,1,0,0)" fill="#31c48d" class="undefined-text-0" data-fill-palette-color="primary" id="text-0"></path></svg></g></svg></g></svg></g></svg></g><g transform="matrix(1,0,0,1,148.12246885531675,0)"><svg viewBox="0 0 99.27506228936646 99.27506228936646" height="99.27506228936646" width="99.27506228936646"><g><svg></svg></g><g id="icon-0"><svg viewBox="0 0 99.27506228936646 99.27506228936646" height="99.27506228936646" width="99.27506228936646"><g><path d="M0 49.638c0-27.414 22.223-49.638 49.638-49.638 27.414 0 49.638 22.223 49.637 49.638 0 27.414-22.223 49.638-49.637 49.637-27.414 0-49.638-22.223-49.638-49.637zM49.638 95.396c25.272 0 45.758-20.487 45.758-45.758 0-25.272-20.487-45.758-45.758-45.759-25.272 0-45.758 20.487-45.759 45.759 0 25.272 20.487 45.758 45.759 45.758z" data-fill-palette-color="accent" fill="#096a2e" stroke="transparent"></path><ellipse rx="49.1411558332364" ry="49.1411558332364" cx="49.63753114468323" cy="49.63753114468323" fill="#096a2e" stroke="transparent" stroke-width="0" fill-opacity="1" data-fill-palette-color="accent"></ellipse></g><g transform="matrix(1,0,0,1,25.923415354727204,25.923415354727204)"><svg viewBox="0 0 47.42823157991205 47.42823157991205" height="47.42823157991205" width="47.42823157991205"><g><svg xmlns="http://www.w3.org/2000/svg" xmlns:xlink="http://www.w3.org/1999/xlink" version="1.0" x="0" y="0" viewBox="1 1 48 48" enable-background="new 0 0 50 50" xml:space="preserve" height="47.42823157991205" width="47.42823157991205" class="icon-s-0" data-fill-palette-color="quaternary" id="s-0"><g fill="#ffffff" data-fill-palette-color="quaternary"><g fill="#ffffff" data-fill-palette-color="quaternary"><rect x="1" y="1" fill="#ffffff" width="23" height="5" data-fill-palette-color="quaternary"></rect><rect x="1" y="10" fill="#ffffff" width="23" height="5" data-fill-palette-color="quaternary"></rect><rect x="1" y="19" fill="#ffffff" width="23" height="5" data-fill-palette-color="quaternary"></rect></g><g fill="#ffffff" data-fill-palette-color="quaternary"><rect x="26" y="26" fill="#ffffff" width="23" height="5" data-fill-palette-color="quaternary"></rect><rect x="26" y="35" fill="#ffffff" width="23" height="5" data-fill-palette-color="quaternary"></rect><rect x="26" y="44" fill="#ffffff" width="23" height="5" data-fill-palette-color="quaternary"></rect></g><g fill="#ffffff" data-fill-palette-color="quaternary"><rect x="19" y="26" fill="#ffffff" width="5" height="23" data-fill-palette-color="quaternary"></rect><rect x="10" y="26" fill="#ffffff" width="5" height="23" data-fill-palette-color="quaternary"></rect><rect x="1" y="26" fill="#ffffff" width="5" height="23" data-fill-palette-color="quaternary"></rect></g><g fill="#ffffff" data-fill-palette-color="quaternary"><rect x="44" y="1" fill="#ffffff" width="5" height="23" data-fill-palette-color="quaternary"></rect><rect x="35" y="1" fill="#ffffff" width="5" height="23" data-fill-palette-color="quaternary"></rect><rect x="26" y="1" fill="#ffffff" width="5" height="23" data-fill-palette-color="quaternary"></rect></g></g></svg></g></svg></g></svg></g></svg></g><g></g></svg></g><defs></defs></svg><rect width="395.52" height="162.59971131412806" fill="none" stroke="none" visibility="hidden"></rect></g></svg></g></svg>